# xmcd
#
# Track frame offsets:
#	150
#	14562
#	29755
#	43847
#	54595
#	70230
#	84690
#	98175
#	113142
#	129187
#	144207
#	159142
#	173205
#	187780
#
# Disc length: 2699 seconds
#
# Revision: 0
# Processed by: cddbd v1.4PL0 Copyright (c) Steve Scherf et al.
# Submitted via: dBpowerAMP V4.0
#
DISCID=b50a890e
DTITLE=Bjørn og Johnny - Gode ben
DYEAR=1997
DGENRE=Country
TTITLE0=Gode ben
TTITLE1=Den dejligste gave
TTITLE2=Det bedste var blowing in the wind
TTITLE3=Det vi holder af (My boy lollipop)
TTITLE4=Jeg savner min pige
TTITLE5=Det var en midsommernat
TTITLE6=Solskin på en sommerdag (Marianne)
TTITLE7=Så' det os to (Oh lonesome me)
TTITLE8=Vores stjerne
TTITLE9=En falmet forglemmigej
TTITLE10=Når vi kommer hjem
TTITLE11=Mit paradis
TTITLE12=Ha' en dejlig dag
TTITLE13=Syng en sang (He's got the hole world in his hand)
EXTD=
EXTT0=
EXTT1=
EXTT2=
EXTT3=
EXTT4=
EXTT5=
EXTT6=
EXTT7=
EXTT8=
EXTT9=
EXTT10=
EXTT11=
EXTT12=
EXTT13=
PLAYORDER=
